<mxfile host="app.diagrams.net" modified="2023-08-19T10:57:23.738Z" agent="Mozilla/5.0 (Macintosh; Intel Mac OS X 10_15_7) AppleWebKit/537.36 (KHTML, like Gecko) Chrome/115.0.0.0 Safari/537.36" etag="C76aoivsXztECFZQidOv" version="21.6.8" type="github">
  <diagram id="C5RBs43oDa-KdzZeNtuy" name="Page-1">
    <mxGraphModel dx="1803" dy="1000" grid="1" gridSize="10" guides="1" tooltips="1" connect="1" arrows="1" fold="1" page="1" pageScale="1" pageWidth="827" pageHeight="1169" background="#ffffff" math="0" shadow="0">
      <root>
        <mxCell id="WIyWlLk6GJQsqaUBKTNV-0" />
        <mxCell id="WIyWlLk6GJQsqaUBKTNV-1" parent="WIyWlLk6GJQsqaUBKTNV-0" />
        <mxCell id="B9upHHpbJp7XhDVoOcVI-30" value="" style="rounded=0;whiteSpace=wrap;html=1;labelBackgroundColor=none;dashed=1;strokeWidth=1;fillStyle=auto;glass=0;" vertex="1" parent="WIyWlLk6GJQsqaUBKTNV-1">
          <mxGeometry x="610" y="270" width="670" height="780" as="geometry" />
        </mxCell>
        <mxCell id="B9upHHpbJp7XhDVoOcVI-4" value="" style="edgeStyle=orthogonalEdgeStyle;rounded=0;orthogonalLoop=1;jettySize=auto;html=1;labelBackgroundColor=none;fontColor=default;" edge="1" parent="WIyWlLk6GJQsqaUBKTNV-1" source="WIyWlLk6GJQsqaUBKTNV-3" target="B9upHHpbJp7XhDVoOcVI-3">
          <mxGeometry relative="1" as="geometry" />
        </mxCell>
        <mxCell id="B9upHHpbJp7XhDVoOcVI-5" value="Session1" style="edgeLabel;html=1;align=center;verticalAlign=middle;resizable=0;points=[];labelBackgroundColor=none;" vertex="1" connectable="0" parent="B9upHHpbJp7XhDVoOcVI-4">
          <mxGeometry x="-0.025" y="-2" relative="1" as="geometry">
            <mxPoint x="2" as="offset" />
          </mxGeometry>
        </mxCell>
        <mxCell id="WIyWlLk6GJQsqaUBKTNV-3" value="prompt具体skill指令key + 指令内容,eg:&lt;br&gt;指令key1：创建文章&lt;br&gt;指令内容：用户prompt（比如帮我生成一篇技术博客目录）" style="rounded=1;whiteSpace=wrap;html=1;fontSize=12;glass=0;strokeWidth=1;shadow=0;labelBackgroundColor=none;" parent="WIyWlLk6GJQsqaUBKTNV-1" vertex="1">
          <mxGeometry x="160" y="40" width="340" height="130" as="geometry" />
        </mxCell>
        <mxCell id="B9upHHpbJp7XhDVoOcVI-7" value="" style="edgeStyle=orthogonalEdgeStyle;rounded=0;orthogonalLoop=1;jettySize=auto;html=1;labelBackgroundColor=none;fontColor=default;" edge="1" parent="WIyWlLk6GJQsqaUBKTNV-1" source="B9upHHpbJp7XhDVoOcVI-3" target="B9upHHpbJp7XhDVoOcVI-6">
          <mxGeometry relative="1" as="geometry" />
        </mxCell>
        <mxCell id="B9upHHpbJp7XhDVoOcVI-9" value="识别出指令以及内容" style="edgeLabel;html=1;align=center;verticalAlign=middle;resizable=0;points=[];labelBackgroundColor=none;" vertex="1" connectable="0" parent="B9upHHpbJp7XhDVoOcVI-7">
          <mxGeometry x="-0.1487" y="-1" relative="1" as="geometry">
            <mxPoint y="-11" as="offset" />
          </mxGeometry>
        </mxCell>
        <mxCell id="B9upHHpbJp7XhDVoOcVI-13" style="edgeStyle=orthogonalEdgeStyle;rounded=0;orthogonalLoop=1;jettySize=auto;html=1;labelBackgroundColor=none;fontColor=default;" edge="1" parent="WIyWlLk6GJQsqaUBKTNV-1" source="B9upHHpbJp7XhDVoOcVI-3">
          <mxGeometry relative="1" as="geometry">
            <mxPoint x="330" y="640" as="targetPoint" />
          </mxGeometry>
        </mxCell>
        <mxCell id="B9upHHpbJp7XhDVoOcVI-14" value="未识别到指令" style="edgeLabel;html=1;align=center;verticalAlign=middle;resizable=0;points=[];labelBackgroundColor=none;" vertex="1" connectable="0" parent="B9upHHpbJp7XhDVoOcVI-13">
          <mxGeometry x="-0.1648" y="-1" relative="1" as="geometry">
            <mxPoint x="1" as="offset" />
          </mxGeometry>
        </mxCell>
        <mxCell id="B9upHHpbJp7XhDVoOcVI-3" value="Function Calling主要进行语义识别" style="rhombus;whiteSpace=wrap;html=1;rounded=1;glass=0;strokeWidth=1;shadow=0;labelBackgroundColor=none;" vertex="1" parent="WIyWlLk6GJQsqaUBKTNV-1">
          <mxGeometry x="205" y="290" width="250" height="220" as="geometry" />
        </mxCell>
        <mxCell id="B9upHHpbJp7XhDVoOcVI-19" value="" style="edgeStyle=orthogonalEdgeStyle;rounded=0;orthogonalLoop=1;jettySize=auto;html=1;labelBackgroundColor=none;fontColor=default;" edge="1" parent="WIyWlLk6GJQsqaUBKTNV-1" source="B9upHHpbJp7XhDVoOcVI-6" target="B9upHHpbJp7XhDVoOcVI-18">
          <mxGeometry relative="1" as="geometry" />
        </mxCell>
        <mxCell id="B9upHHpbJp7XhDVoOcVI-6" value="生成结构体:&lt;br&gt;- command&lt;br&gt;&lt;div style=&quot;text-align: left;&quot;&gt;&lt;span style=&quot;background-color: initial;&quot;&gt;- payload&lt;/span&gt;&lt;/div&gt;" style="whiteSpace=wrap;html=1;rounded=1;glass=0;strokeWidth=1;shadow=0;labelBackgroundColor=none;" vertex="1" parent="WIyWlLk6GJQsqaUBKTNV-1">
          <mxGeometry x="650" y="350" width="160" height="100" as="geometry" />
        </mxCell>
        <mxCell id="B9upHHpbJp7XhDVoOcVI-16" value="" style="edgeStyle=orthogonalEdgeStyle;rounded=0;orthogonalLoop=1;jettySize=auto;html=1;labelBackgroundColor=none;fontColor=default;" edge="1" parent="WIyWlLk6GJQsqaUBKTNV-1" source="B9upHHpbJp7XhDVoOcVI-12" target="B9upHHpbJp7XhDVoOcVI-15">
          <mxGeometry relative="1" as="geometry" />
        </mxCell>
        <mxCell id="B9upHHpbJp7XhDVoOcVI-17" value="Sessoin2" style="edgeLabel;html=1;align=center;verticalAlign=middle;resizable=0;points=[];labelBackgroundColor=none;" vertex="1" connectable="0" parent="B9upHHpbJp7XhDVoOcVI-16">
          <mxGeometry x="-0.2125" y="1" relative="1" as="geometry">
            <mxPoint x="-1" y="5" as="offset" />
          </mxGeometry>
        </mxCell>
        <mxCell id="B9upHHpbJp7XhDVoOcVI-12" value="返回null" style="whiteSpace=wrap;html=1;rounded=1;glass=0;strokeWidth=1;shadow=0;labelBackgroundColor=none;" vertex="1" parent="WIyWlLk6GJQsqaUBKTNV-1">
          <mxGeometry x="250" y="640" width="160" height="100" as="geometry" />
        </mxCell>
        <mxCell id="B9upHHpbJp7XhDVoOcVI-15" value="走正常的chat流程&lt;br&gt;去除指令后的prompt为最终对话内容" style="whiteSpace=wrap;html=1;rounded=1;glass=0;strokeWidth=1;shadow=0;labelBackgroundColor=none;" vertex="1" parent="WIyWlLk6GJQsqaUBKTNV-1">
          <mxGeometry x="250" y="880" width="160" height="100" as="geometry" />
        </mxCell>
        <mxCell id="B9upHHpbJp7XhDVoOcVI-24" value="" style="edgeStyle=orthogonalEdgeStyle;rounded=0;orthogonalLoop=1;jettySize=auto;html=1;labelBackgroundColor=none;fontColor=default;" edge="1" parent="WIyWlLk6GJQsqaUBKTNV-1" source="B9upHHpbJp7XhDVoOcVI-18" target="B9upHHpbJp7XhDVoOcVI-23">
          <mxGeometry relative="1" as="geometry" />
        </mxCell>
        <mxCell id="B9upHHpbJp7XhDVoOcVI-26" value="Session3" style="edgeLabel;html=1;align=center;verticalAlign=middle;resizable=0;points=[];labelBackgroundColor=none;" vertex="1" connectable="0" parent="B9upHHpbJp7XhDVoOcVI-24">
          <mxGeometry x="-0.0643" relative="1" as="geometry">
            <mxPoint y="-5" as="offset" />
          </mxGeometry>
        </mxCell>
        <mxCell id="B9upHHpbJp7XhDVoOcVI-18" value="根据对应的命令和参数构造专门的promt以及指定专门的输出形式" style="whiteSpace=wrap;html=1;rounded=1;glass=0;strokeWidth=1;shadow=0;labelBackgroundColor=none;" vertex="1" parent="WIyWlLk6GJQsqaUBKTNV-1">
          <mxGeometry x="650" y="640" width="160" height="100" as="geometry" />
        </mxCell>
        <mxCell id="B9upHHpbJp7XhDVoOcVI-28" value="" style="edgeStyle=orthogonalEdgeStyle;rounded=0;orthogonalLoop=1;jettySize=auto;html=1;labelBackgroundColor=none;fontColor=default;" edge="1" parent="WIyWlLk6GJQsqaUBKTNV-1" source="B9upHHpbJp7XhDVoOcVI-23" target="B9upHHpbJp7XhDVoOcVI-27">
          <mxGeometry relative="1" as="geometry" />
        </mxCell>
        <mxCell id="B9upHHpbJp7XhDVoOcVI-23" value="获得结果" style="whiteSpace=wrap;html=1;rounded=1;glass=0;strokeWidth=1;shadow=0;labelBackgroundColor=none;" vertex="1" parent="WIyWlLk6GJQsqaUBKTNV-1">
          <mxGeometry x="650" y="880" width="160" height="100" as="geometry" />
        </mxCell>
        <mxCell id="B9upHHpbJp7XhDVoOcVI-27" value="工作区更新结果" style="whiteSpace=wrap;html=1;rounded=1;glass=0;strokeWidth=1;shadow=0;labelBackgroundColor=none;" vertex="1" parent="WIyWlLk6GJQsqaUBKTNV-1">
          <mxGeometry x="980" y="880" width="160" height="100" as="geometry" />
        </mxCell>
      </root>
    </mxGraphModel>
  </diagram>
</mxfile>
